<?xml version="1.0" encoding="UTF-8"?>
<svg xmlns="http://www.w3.org/2000/svg" xmlns:xlink="http://www.w3.org/1999/xlink" viewBox="0 0 48 48" width="48px" height="48px">
<g id="surface161243124">
<path style=" stroke:none;fill-rule:nonzero;fill:rgb(40.000001%,40.000001%,40.000001%);fill-opacity:1;" d="M 41.582031 19.125 C 41.316406 18.320312 42 17.539062 42 14.769531 C 42 8.15625 35.742188 7 32.613281 7 C 32.613281 7 29.390625 5 28 5 L 20 5 C 18.609375 5 15.390625 7 15.390625 7 C 12.257812 7 6 8.15625 6 14.769531 C 6 17.539062 6.683594 18.320312 6.421875 19.125 C 6.160156 19.933594 5 21.164062 5 26 L 10 29 C 12.636719 26.550781 11.921875 23.390625 12 23 C 12.105469 25.664062 12.734375 27.292969 13.335938 28.742188 C 15.230469 33.304688 14 36.175781 14 37.660156 C 14 39.898438 18 43 18 43 L 30 43 C 30 43 34 39.898438 34 37.660156 C 34 36.175781 32.773438 33.304688 34.664062 28.742188 C 35.265625 27.292969 35.894531 25.664062 36 23 C 36.078125 23.390625 35.363281 26.550781 38 29 L 43 26 C 43 21.164062 41.84375 19.933594 41.582031 19.125 "/>
<path style=" stroke:none;fill-rule:nonzero;fill:rgb(52.549022%,100%,44.313726%);fill-opacity:1;" d="M 25 34.6875 C 25 35.855469 26.050781 36 27.195312 36 L 27.503906 35.996094 C 29.292969 35.996094 30.457031 34.96875 30.457031 33.601562 C 30.457031 32.746094 29.683594 32 28.765625 32 L 27.195312 32 C 26.015625 32 25 32.601562 25 33.519531 Z M 25 39.6875 C 25 40.238281 24.953125 43 26 43 L 26.28125 42.996094 C 27.921875 42.996094 30 39.96875 30 38.601562 C 30 37.746094 29.289062 37 28.449219 37 L 27.011719 37 C 25.933594 37 25 37.601562 25 38.519531 Z M 25 29.6875 C 25 30.644531 25.957031 31 27 31 L 28 31 C 29.980469 31 31 29.664062 31 28.605469 C 31 27.75 30.292969 27 29.457031 27 L 27 27 C 26.3125 27 25 27.4375 25 28.519531 Z M 23 34.6875 C 23 35.855469 21.949219 36 20.804688 36 L 20.496094 35.996094 C 18.707031 35.996094 17.542969 34.96875 17.542969 33.601562 C 17.542969 32.746094 18.316406 32 19.234375 32 L 20.804688 32 C 21.984375 32 23 32.601562 23 33.519531 Z M 23 39.6875 C 23 40.238281 23.046875 43 22 43 L 21.71875 42.996094 C 20.078125 42.996094 18 39.96875 18 38.601562 C 18 37.746094 18.710938 37 19.550781 37 L 20.988281 37 C 22.066406 37 23 37.601562 23 38.519531 Z M 23 29.6875 C 23 30.644531 22.042969 31 21 31 L 20 31 C 18.019531 31 17 29.664062 17 28.605469 C 17 27.75 17.707031 27 18.542969 27 L 21 27 C 21.6875 27 23 27.4375 23 28.519531 Z M 23 29.6875 "/>
</g>
</svg>
