<?xml version="1.0" encoding="UTF-8"?>
<svg xmlns="http://www.w3.org/2000/svg" xmlns:xlink="http://www.w3.org/1999/xlink" viewBox="0 0 48 48" width="48px" height="48px">
<defs>
<linearGradient id="linear0" gradientUnits="userSpaceOnUse" x1="168.13678" y1="28.582661" x2="9.48076" y2="173.765106" gradientTransform="matrix(0.27907,0,0,0.27907,0,0)">
<stop offset="0.396" style="stop-color:rgb(21.960784%,21.960784%,21.960784%);stop-opacity:1;"/>
<stop offset="0.418" style="stop-color:rgb(20%,20%,20%);stop-opacity:1;"/>
<stop offset="0.518" style="stop-color:rgb(20%,20%,20%);stop-opacity:1;"/>
<stop offset="0.606" style="stop-color:rgb(2.352941%,2.352941%,2.352941%);stop-opacity:1;"/>
<stop offset="0.674" style="stop-color:rgb(0%,0%,0%);stop-opacity:1;"/>
</linearGradient>
<linearGradient id="linear1" gradientUnits="userSpaceOnUse" x1="113.394081" y1="78.107948" x2="-32.33596" y2="211.460571" gradientTransform="matrix(0.27907,0,0,0.27907,0,0)">
<stop offset="0.133" style="stop-color:rgb(87.058824%,87.058824%,87.058824%);stop-opacity:1;"/>
<stop offset="0.207" style="stop-color:rgb(78.823531%,78.823531%,78.431374%);stop-opacity:1;"/>
<stop offset="0.36" style="stop-color:rgb(58.039218%,57.254905%,56.078434%);stop-opacity:1;"/>
<stop offset="0.447" style="stop-color:rgb(52.549022%,100%,44.313726%);stop-opacity:1;"/>
</linearGradient>
<linearGradient id="linear2" gradientUnits="userSpaceOnUse" x1="129.557648" y1="36.88612" x2="68.871048" y2="70.470642" gradientTransform="matrix(0.27907,0,0,0.27907,0,0)">
<stop offset="0.477" style="stop-color:rgb(21.960784%,21.960784%,21.960784%);stop-opacity:1;"/>
<stop offset="0.517" style="stop-color:rgb(20%,20%,20%);stop-opacity:1;"/>
<stop offset="0.706" style="stop-color:rgb(20%,20%,20%);stop-opacity:1;"/>
<stop offset="0.873" style="stop-color:rgb(2.352941%,2.352941%,2.352941%);stop-opacity:1;"/>
<stop offset="1" style="stop-color:rgb(0%,0%,0%);stop-opacity:1;"/>
</linearGradient>
<linearGradient id="linear3" gradientUnits="userSpaceOnUse" x1="161.064957" y1="29.19145" x2="29.411751" y2="147.883606" gradientTransform="matrix(0.27907,0,0,0.27907,0,0)">
<stop offset="0.396" style="stop-color:rgb(21.960784%,21.960784%,21.960784%);stop-opacity:1;"/>
<stop offset="0.418" style="stop-color:rgb(20%,20%,20%);stop-opacity:1;"/>
<stop offset="0.518" style="stop-color:rgb(20%,20%,20%);stop-opacity:1;"/>
<stop offset="0.606" style="stop-color:rgb(2.352941%,2.352941%,2.352941%);stop-opacity:1;"/>
<stop offset="0.674" style="stop-color:rgb(0%,0%,0%);stop-opacity:1;"/>
</linearGradient>
<linearGradient id="linear4" gradientUnits="userSpaceOnUse" x1="115.983177" y1="65.291428" x2="52.044071" y2="100.842072" gradientTransform="matrix(0.27907,0,0,0.27907,0,0)">
<stop offset="0.185" style="stop-color:rgb(87.058824%,87.058824%,87.058824%);stop-opacity:1;"/>
<stop offset="0.284" style="stop-color:rgb(52.549022%,100%,44.313726%);stop-opacity:1;"/>
<stop offset="0.773" style="stop-color:rgb(52.549022%,100%,44.313726%);stop-opacity:1;"/>
<stop offset="1" style="stop-color:rgb(52.549022%,100%,44.313726%);stop-opacity:1;"/>
</linearGradient>
</defs>
<g id="surface160911165">
<path style=" stroke:none;fill-rule:nonzero;fill:url(#linear0);" d="M 24.785156 36.410156 C 22.136719 34.773438 19.71875 33.085938 18.597656 32.210938 C 17.6875 31.503906 15.808594 30.34375 13.820312 29.113281 C 10.929688 27.324219 7.648438 25.300781 6.160156 23.9375 C 3.46875 21.460938 4.6875 18.699219 4.71875 18.578125 C 4.71875 18.578125 10.734375 16.496094 11.066406 16.59375 L 43.316406 36.773438 L 43.550781 37.625 C 43.40625 38.832031 43.042969 39.796875 42.046875 40.351562 C 39.269531 41.898438 35.628906 41.246094 33.199219 40.578125 C 30.753906 39.910156 27.273438 37.941406 24.785156 36.410156 C 24.789062 36.410156 24.789062 36.410156 24.785156 36.410156 Z M 24.785156 36.410156 "/>
<path style=" stroke:none;fill-rule:nonzero;fill:url(#linear1);" d="M 8.996094 16.007812 C 8.996094 16.007812 8.253906 15.78125 8 16.046875 C 7.746094 16.308594 4.71875 18.578125 4.71875 18.578125 C 4.71875 18.578125 4.480469 20.851562 6.945312 23.113281 C 9.40625 25.375 16.710938 29.96875 18.972656 31.734375 C 21.230469 33.496094 29.144531 38.839844 33.359375 39.996094 C 37.574219 41.152344 43.078125 41.613281 43.550781 37.625 Z M 8.996094 16.007812 "/>
<path style=" stroke:none;fill-rule:nonzero;fill:url(#linear2);" d="M 21.730469 15.976562 C 21.730469 15.976562 22.320312 14.011719 22.996094 13.339844 C 23.828125 12.511719 25.757812 10.859375 26.3125 11.199219 C 26.84375 11.527344 29.550781 16.753906 29.140625 19.007812 Z M 21.730469 15.976562 "/>
<path style=" stroke:none;fill-rule:nonzero;fill:url(#linear3);" d="M 16.808594 7.109375 C 16.140625 6.605469 15.007812 6.558594 14.507812 6.992188 C 14.007812 7.425781 15.398438 8.539062 11.246094 11.433594 C 9.84375 12.410156 8.960938 14.433594 8.507812 15.921875 C 8.507812 15.921875 7.835938 16.515625 15.789062 22.335938 C 21.324219 26.382812 24.734375 31.269531 31.546875 35.390625 C 38.84375 39.808594 43.75 40.023438 43.578125 36.992188 C 43.433594 34.472656 33.640625 30.03125 31.328125 23.699219 C 29.359375 18.304688 30.089844 17.386719 27.429688 15.742188 C 25.070312 14.289062 18.582031 15.917969 17.113281 12.269531 C 16.808594 11.515625 17.839844 7.882812 16.808594 7.109375 Z M 16.808594 7.109375 "/>
<path style=" stroke:none;fill-rule:nonzero;fill:url(#linear4);" d="M 19.601562 23.367188 L 18.476562 22.207031 L 24.554688 20.753906 L 25.675781 21.914062 Z M 28.117188 24.320312 L 26.996094 23.15625 L 20.917969 24.613281 L 22.042969 25.773438 Z M 28.117188 24.320312 "/>
<path style=" stroke:none;fill-rule:nonzero;fill:rgb(14.901961%,14.901961%,14.901961%);fill-opacity:1;" d="M 29.273438 19.125 C 29.273438 19.496094 28.972656 19.796875 28.601562 19.796875 C 28.226562 19.796875 27.925781 19.496094 27.925781 19.125 C 27.925781 18.753906 28.226562 18.453125 28.601562 18.453125 C 28.972656 18.453125 29.273438 18.753906 29.273438 19.125 Z M 29.273438 19.125 "/>
<path style=" stroke:none;fill-rule:nonzero;fill:rgb(52.549022%,100%,44.313726%);fill-opacity:1;" d="M 28.339844 19.40625 C 28.28125 19.34375 28.242188 19.257812 28.234375 19.164062 C 28.222656 18.933594 28.394531 18.730469 28.625 18.707031 L 29.984375 18.5625 C 30.214844 18.539062 30.414062 18.710938 30.429688 18.9375 C 30.445312 19.167969 30.273438 19.371094 30.042969 19.394531 L 28.679688 19.535156 C 28.546875 19.550781 28.421875 19.496094 28.339844 19.40625 Z M 28.339844 19.40625 "/>
<path style=" stroke:none;fill-rule:nonzero;fill:rgb(14.901961%,14.901961%,14.901961%);fill-opacity:1;" d="M 29.917969 21.035156 C 29.917969 21.410156 29.617188 21.710938 29.246094 21.710938 C 28.875 21.710938 28.574219 21.410156 28.574219 21.035156 C 28.574219 20.664062 28.875 20.363281 29.246094 20.363281 C 29.617188 20.363281 29.917969 20.664062 29.917969 21.035156 Z M 29.917969 21.035156 "/>
<path style=" stroke:none;fill-rule:nonzero;fill:rgb(52.549022%,100%,44.313726%);fill-opacity:1;" d="M 28.984375 21.320312 C 28.925781 21.253906 28.886719 21.171875 28.882812 21.074219 C 28.867188 20.847656 29.039062 20.644531 29.269531 20.621094 L 30.628906 20.476562 C 30.859375 20.453125 31.058594 20.621094 31.074219 20.851562 C 31.089844 21.078125 30.917969 21.28125 30.6875 21.304688 L 29.324219 21.449219 C 29.191406 21.460938 29.066406 21.410156 28.984375 21.320312 Z M 28.984375 21.320312 "/>
<path style=" stroke:none;fill-rule:nonzero;fill:rgb(14.901961%,14.901961%,14.901961%);fill-opacity:1;" d="M 30.65625 22.953125 C 30.65625 23.324219 30.355469 23.625 29.984375 23.625 C 29.613281 23.625 29.3125 23.324219 29.3125 22.953125 C 29.3125 22.582031 29.613281 22.28125 29.984375 22.28125 C 30.355469 22.28125 30.65625 22.582031 30.65625 22.953125 Z M 30.65625 22.953125 "/>
<path style=" stroke:none;fill-rule:nonzero;fill:rgb(52.549022%,100%,44.313726%);fill-opacity:1;" d="M 29.722656 23.234375 C 29.664062 23.171875 29.628906 23.085938 29.621094 22.992188 C 29.605469 22.761719 29.777344 22.558594 30.007812 22.535156 L 31.367188 22.390625 C 31.597656 22.367188 31.796875 22.535156 31.8125 22.765625 C 31.828125 22.996094 31.65625 23.199219 31.425781 23.222656 L 30.066406 23.363281 C 29.929688 23.378906 29.804688 23.324219 29.722656 23.234375 Z M 29.722656 23.234375 "/>
<path style=" stroke:none;fill-rule:nonzero;fill:rgb(14.901961%,14.901961%,14.901961%);fill-opacity:1;" d="M 31.300781 24.863281 C 31.300781 25.238281 31 25.539062 30.628906 25.539062 C 30.257812 25.539062 29.957031 25.238281 29.957031 24.863281 C 29.957031 24.492188 30.257812 24.191406 30.628906 24.191406 C 31 24.191406 31.300781 24.492188 31.300781 24.863281 Z M 31.300781 24.863281 "/>
<path style=" stroke:none;fill-rule:nonzero;fill:rgb(52.549022%,100%,44.313726%);fill-opacity:1;" d="M 30.367188 25.148438 C 30.308594 25.082031 30.273438 24.996094 30.265625 24.902344 C 30.25 24.675781 30.421875 24.472656 30.652344 24.449219 L 32.015625 24.304688 C 32.242188 24.28125 32.441406 24.449219 32.460938 24.679688 C 32.472656 24.90625 32.300781 25.109375 32.070312 25.132812 L 30.710938 25.277344 C 30.574219 25.289062 30.453125 25.238281 30.367188 25.148438 Z M 30.367188 25.148438 "/>
</g>
</svg>
