<?xml version="1.0" encoding="UTF-8"?>
<svg xmlns="http://www.w3.org/2000/svg" xmlns:xlink="http://www.w3.org/1999/xlink" viewBox="0 0 48 48" width="48px" height="48px">
<g id="surface160730346">
<path style=" stroke:none;fill-rule:nonzero;fill:rgb(52.549022%,100%,44.313726%);fill-opacity:1;" d="M 29.992188 26 C 32.257812 24.285156 34 23 36 23 C 38 23 40.195312 24.195312 43 27 C 42.980469 28.40625 42.992188 29.667969 43 31 C 43.003906 31.8125 43.007812 32.730469 42.996094 33.5 C 42.914062 39.523438 42.085938 44 36 44 C 34.007812 41 34.972656 40 32.980469 40 C 30.988281 40 30.683594 41.753906 25.015625 42 C 24.84375 42.007812 25.175781 42 25 42 C 24.875 42 24.125 42.003906 24 42 C 20.714844 41.929688 16.707031 40.746094 13.0625 38 C 10.277344 35.902344 5.09375 31 4.097656 29 C 3.707031 28.21875 4.472656 24.308594 6.484375 19.796875 C 9.53125 12.96875 12.035156 10.132812 13.871094 8 C 16.699219 5.121094 19.039062 4 20.035156 4 C 21.03125 4 26.96875 5.011719 27.941406 6 C 28.9375 7 28.703125 7.527344 28.9375 9 C 28.972656 9.226562 28.992188 9.433594 29 9.625 C 29.027344 10.664062 28.625 11.210938 28.207031 11.976562 C 28.035156 12.289062 27.492188 12.914062 27.015625 12.496094 C 26.742188 12.984375 25.683594 13.292969 25.292969 12.621094 C 24.917969 13.242188 23.859375 12.964844 23.621094 12.519531 C 23.246094 13.109375 22.429688 12.449219 22.171875 12.191406 C 21.988281 12.003906 21.75 11.722656 21.59375 11.425781 C 21.558594 11.390625 21.023438 10.105469 21.5 10 C 20.492188 10.222656 20.234375 10.15625 19.527344 10.878906 C 18.820312 11.597656 17 13 17 17 C 17 20 16.050781 23 15.054688 24 C 15.054688 24 16.050781 24 17.046875 24 C 20.5 26 23.125 26 29.992188 26 Z M 29.992188 26 "/>
<path style=" stroke:none;fill-rule:nonzero;fill:rgb(48.627451%,93.725491%,40.784314%);fill-opacity:1;" d="M 25.015625 42 C 25.347656 41.984375 25.660156 41.964844 25.960938 41.941406 C 26.140625 41.925781 26.308594 41.90625 26.476562 41.890625 C 26.578125 41.878906 26.683594 41.867188 26.777344 41.855469 C 26.996094 41.828125 27.207031 41.800781 27.40625 41.765625 C 27.433594 41.761719 27.464844 41.757812 27.488281 41.753906 C 27.710938 41.71875 27.921875 41.675781 28.121094 41.636719 C 29.511719 41.339844 30.339844 40.933594 31.015625 40.601562 C 31.320312 40.445312 31.597656 40.3125 31.878906 40.207031 L 31.882812 40.207031 C 31.902344 40.199219 31.925781 40.191406 31.949219 40.179688 C 32.09375 40.132812 32.238281 40.089844 32.390625 40.0625 C 32.425781 40.054688 32.464844 40.046875 32.5 40.042969 C 32.652344 40.015625 32.808594 40 32.980469 40 C 34.972656 40 34.007812 41 36 44 C 36.394531 44 36.765625 43.976562 37.109375 43.941406 C 38.628906 43.785156 39.753906 43.277344 40.589844 42.507812 C 39.820312 41.933594 36.371094 39.214844 35.375 36 C 35.375 36 35.378906 36 35.378906 36 C 35.375 35.996094 35.371094 35.988281 35.367188 35.984375 C 35.324219 35.84375 35.265625 35.714844 35.195312 35.585938 C 34.910156 34.425781 35.171875 31.546875 33.375 29.75 C 31.75 28.125 29.992188 26 29.992188 26 C 24.105469 20.085938 19.789062 22.003906 17.164062 23.917969 C 17.140625 23.96875 17.125 24 17.125 24 L 17.046875 24 C 16.050781 24 15.054688 24 15.054688 24 C 15.046875 24.011719 11.996094 28 8.277344 27.988281 C 8.097656 27.546875 8.003906 27.199219 8 27 C 7.945312 24.371094 9.453125 20.355469 11.070312 16.5 C 13.230469 11.347656 13.992188 8.144531 15.949219 6.113281 C 15.65625 6.347656 15.351562 6.605469 15.046875 6.882812 C 15.007812 6.917969 14.972656 6.945312 14.929688 6.980469 C 14.585938 7.292969 14.234375 7.632812 13.871094 8 C 12.035156 10.132812 9.53125 12.96875 6.488281 19.796875 C 4.472656 24.308594 3.710938 28.21875 4.097656 29 C 5.09375 31 10.277344 35.902344 13.0625 38 C 13.503906 38.332031 13.953125 38.632812 14.40625 38.921875 C 14.558594 39.019531 14.710938 39.109375 14.863281 39.199219 C 15.171875 39.382812 15.476562 39.554688 15.785156 39.71875 C 15.964844 39.8125 16.136719 39.90625 16.316406 39.996094 C 16.722656 40.195312 17.132812 40.382812 17.539062 40.554688 L 17.542969 40.554688 C 19.335938 41.296875 21.113281 41.734375 22.75 41.910156 C 23.046875 41.945312 23.335938 41.96875 23.621094 41.984375 C 23.878906 41.996094 23.753906 41.996094 24 42 C 24.105469 42 24.804688 42 25 42 C 25.203125 42 24.90625 42.003906 25.015625 42 Z M 25.015625 42 "/>
<path style=" stroke:none;fill-rule:nonzero;fill:rgb(59.607846%,59.607846%,59.607846%);fill-opacity:1;" d="M 15.625 34 C 12.375 32 6.472656 32 6.472656 32 C 8.496094 34.148438 11.273438 36.652344 13.0625 38 C 16.085938 40.277344 19.445312 41.488281 22.375 41.871094 C 23.070312 41.964844 23.363281 41.996094 24 42 C 24.21875 42 24.804688 42.007812 25.015625 42 C 30.683594 41.753906 30.988281 40 32.980469 40 C 33.757812 40 34.078125 40.152344 34.300781 40.515625 C 34.28125 40.46875 34.265625 40.421875 34.25 40.375 C 33.375 37.625 29 37.125 25.25 37.125 C 23.875 37.125 18.96875 36.058594 15.625 34 Z M 15.625 34 "/>
<path style=" stroke:none;fill-rule:nonzero;fill:rgb(52.549022%,100%,44.313726%);fill-opacity:1;" d="M 17 24 C 17 24 16 24.882812 16 27.75 C 16 31 19.203125 32.519531 22.125 33.625 C 26.75 35.375 33 35 33 35 C 33 35 33.074219 32.648438 31.875 30.875 C 30.875 29.398438 30 26 30 26 C 25.089844 21.070312 21.269531 21.585938 18.613281 23 C 18.175781 23.230469 17 24 17 24 Z M 17 24 "/>
</g>
</svg>
